<?xml version="1.0" encoding="UTF-8"?>
<svg version="1.1" xmlns="http://www.w3.org/2000/svg" width="96" height="96">
<path d="M0 0 C8.80288754 6.34043826 15.4186507 14.72648904 17.58203125 25.4921875 C18.92007691 37.90936834 17.85729499 48.88109459 10.39453125 59.2421875 C3.59906349 67.3072968 -4.76331026 73.64666326 -15.53710938 74.69921875 C-17.89614119 74.83928001 -20.24247467 74.90478843 -22.60546875 74.9296875 C-23.35368896 74.93991943 -24.10190918 74.95015137 -24.87280273 74.96069336 C-29.64484713 74.88541456 -33.22206016 73.91803313 -37.61206055 72.09985352 C-40.20936565 71.22589213 -42.11128625 71.55710627 -44.73046875 72.2421875 C-45.96216797 72.54382813 -45.96216797 72.54382813 -47.21875 72.8515625 C-48.96354062 73.35981412 -50.69391753 73.91750376 -52.41796875 74.4921875 C-55.14128363 74.72407372 -57.66836144 74.62312118 -60.41796875 74.4921875 C-62.41796875 72.4921875 -62.41796875 72.4921875 -62.73046875 68.9921875 C-62.65151361 64.6575504 -61.44899075 60.93753246 -59.9765625 56.88671875 C-59.09121395 53.09148335 -60.11086791 50.31073824 -61.45703125 46.72265625 C-64.20047879 37.49976553 -63.58219605 25.65539704 -59.73828125 16.87890625 C-54.14122752 6.76115528 -45.83583984 -1.23069826 -34.703125 -4.84765625 C-22.7242094 -7.2548343 -10.50675303 -6.55186861 0 0 Z M-39.41796875 5.4921875 C-40.11277344 5.91628906 -40.80757812 6.34039063 -41.5234375 6.77734375 C-48.62452486 11.5602525 -53.21847453 18.22650831 -55.41796875 26.4921875 C-55.62900044 29.18626734 -55.74318784 31.74087277 -55.73046875 34.4296875 C-55.74658203 35.10708984 -55.76269531 35.78449219 -55.77929688 36.48242188 C-55.78410619 41.49853563 -54.42293242 44.9636429 -52.41796875 49.4921875 C-52.30859375 52.1171875 -52.30859375 52.1171875 -52.66796875 54.4921875 C-52.78527344 55.33523437 -52.90257812 56.17828125 -53.0234375 57.046875 C-53.15363281 57.85382813 -53.28382812 58.66078125 -53.41796875 59.4921875 C-53.60634207 60.86706813 -53.79396257 62.24205235 -53.98046875 63.6171875 C-54.19703125 65.0403125 -54.19703125 65.0403125 -54.41796875 66.4921875 C-52.99484375 66.275625 -52.99484375 66.275625 -51.54296875 66.0546875 C-50.90617187 65.96832031 -50.269375 65.88195312 -49.61328125 65.79296875 C-48.06361678 65.58064817 -46.51682897 65.34679594 -44.97265625 65.09765625 C-44.12960938 64.98035156 -43.2865625 64.86304688 -42.41796875 64.7421875 C-41.63421875 64.62359375 -40.85046875 64.505 -40.04296875 64.3828125 C-37.41796875 64.4921875 -37.41796875 64.4921875 -34.09765625 65.94921875 C-30.11793738 67.61799683 -26.78524893 67.99405736 -22.54296875 67.9296875 C-21.84042969 67.92211426 -21.13789062 67.91454102 -20.4140625 67.90673828 C-14.58238982 67.72214051 -10.29521482 66.62965441 -5.41796875 63.4921875 C-4.72316406 63.06808594 -4.02835938 62.64398438 -3.3125 62.20703125 C3.79645358 57.41882424 8.36659983 50.75977475 10.58203125 42.4921875 C11.3710342 33.63884048 11.53903995 25.19794246 6.58203125 17.4921875 C5.94587891 16.44998047 5.94587891 16.44998047 5.296875 15.38671875 C0.50866799 8.27776517 -6.1503815 3.70761892 -14.41796875 1.4921875 C-23.27131577 0.70318455 -31.71221379 0.5351788 -39.41796875 5.4921875 Z " fill="#4A4A4A" transform="translate(70.41796875,13.5078125)"/>
</svg>
