<?xml version="1.0" encoding="UTF-8"?>
<svg version="1.1" xmlns="http://www.w3.org/2000/svg" width="96" height="96">
<path d="M0 0 C3.34037932 1.26181239 4.0602457 2.91066041 5.49804688 6.0859375 C5.78099609 6.76140625 6.06394531 7.436875 6.35546875 8.1328125 C6.65001953 8.78507812 6.94457031 9.43734375 7.24804688 10.109375 C9.11190716 14.33133267 10.49200518 18.54726102 11.66796875 23.0078125 C12.73015625 23.06839844 13.79234375 23.12898438 14.88671875 23.19140625 C35.02987274 24.36971649 35.02987274 24.36971649 37.66796875 27.0078125 C37.54952187 30.3920091 36.88453977 31.76962516 34.59375 34.2890625 C33.73136719 35.02125 32.86898437 35.7534375 31.98046875 36.5078125 C31.08328125 37.29027344 30.18609375 38.07273438 29.26171875 38.87890625 C26.66796875 41.0078125 26.66796875 41.0078125 24.63671875 42.41796875 C22.75224388 43.646173 22.75224388 43.646173 20.66796875 46.0078125 C20.66796875 49.07856648 20.93268919 51.10219053 21.66796875 54.0078125 C22.03058296 55.67266167 22.38449016 57.33942687 22.73046875 59.0078125 C22.90449219 59.84054688 23.07851562 60.67328125 23.2578125 61.53125 C23.84479414 65.07550103 23.80075243 68.42265302 23.66796875 72.0078125 C20.8453575 72.82727033 19.27288283 73.27004772 16.52734375 72.07983398 C15.83125 71.60102783 15.13515625 71.12222168 14.41796875 70.62890625 C13.64453125 70.12037109 12.87109375 69.61183594 12.07421875 69.08789062 C10.46823094 67.99159538 8.864064 66.89262799 7.26171875 65.79101562 C3.01254958 62.75929124 3.01254958 62.75929124 -1.92578125 62.375 C-2.71984375 62.91382813 -3.51390625 63.45265625 -4.33203125 64.0078125 C-5.52872491 64.74288021 -6.72676358 65.47576053 -7.92578125 66.20703125 C-9.89575087 67.45467867 -11.85708747 68.71180991 -13.8046875 69.99414062 C-18.68870972 73.05775457 -18.68870972 73.05775457 -22.30078125 72.77734375 C-22.97109375 72.52339844 -23.64140625 72.26945312 -24.33203125 72.0078125 C-24.72745123 65.41747955 -23.47715328 59.67281552 -21.890625 53.27734375 C-21.31957622 49.93491136 -21.12252205 48.15768327 -22.33203125 45.0078125 C-24.66179641 42.37370294 -24.66179641 42.37370294 -27.58203125 39.9453125 C-28.5359375 39.10871094 -29.48984375 38.27210937 -30.47265625 37.41015625 C-33.06200355 35.23468003 -35.67859164 33.10441716 -38.33203125 31.0078125 C-37.45703125 26.1328125 -37.45703125 26.1328125 -36.33203125 25.0078125 C-33.43462549 24.60235327 -30.55255396 24.25273855 -27.64453125 23.9453125 C-26.84080078 23.85443359 -26.03707031 23.76355469 -25.20898438 23.66992188 C-20.89382259 23.20065244 -16.68023238 22.90244414 -12.33203125 23.0078125 C-11.96078125 21.7909375 -11.58953125 20.5740625 -11.20703125 19.3203125 C-4.80307889 0.01609072 -4.80307889 0.01609072 0 0 Z M-1.33203125 14.0078125 C-1.62851562 15.06742188 -1.925 16.12703125 -2.23046875 17.21875 C-3.67571717 21.53470447 -5.09022446 25.70842842 -8.33203125 29.0078125 C-13.95061473 31.43595062 -20.31836878 31.15417677 -26.33203125 31.0078125 C-22.97360948 34.42992848 -19.55086493 37.52520607 -15.78515625 40.48046875 C-14.00255311 42.35411882 -13.61929221 43.44600987 -13.33203125 46.0078125 C-13.671875 48.41015625 -13.671875 48.41015625 -14.26953125 50.9453125 C-15.0741621 54.39296919 -15.43980901 57.46382612 -15.33203125 61.0078125 C-11.1995188 59.58726134 -7.99357633 57.48594084 -4.4921875 54.93359375 C-1.38232224 53.60079435 0.43587559 54.10753059 3.66796875 55.0078125 C6.66015625 56.63671875 6.66015625 56.63671875 9.54296875 58.5703125 C10.99316406 59.53130859 10.99316406 59.53130859 12.47265625 60.51171875 C13.55933594 61.25228516 13.55933594 61.25228516 14.66796875 62.0078125 C16.44428753 58.45517493 14.34407029 53.7968166 13.34375 50.03710938 C12.87109375 47.92578125 12.87109375 47.92578125 12.66796875 44.0078125 C14.8203125 41.23046875 14.8203125 41.23046875 17.66796875 39.0078125 C18.40660156 38.35296875 19.14523438 37.698125 19.90625 37.0234375 C21.30175418 35.83555071 22.69759355 34.64805759 24.09375 33.4609375 C24.61324219 32.98140625 25.13273437 32.501875 25.66796875 32.0078125 C25.66796875 31.6778125 25.66796875 31.3478125 25.66796875 31.0078125 C24.44980469 31.03746094 23.23164062 31.06710938 21.9765625 31.09765625 C9.51580756 30.88847052 9.51580756 30.88847052 6.12841797 27.44091797 C3.47510485 23.2769127 1.99146237 18.73786361 0.66796875 14.0078125 C0.00796875 14.0078125 -0.65203125 14.0078125 -1.33203125 14.0078125 Z " fill="#4A4A4A" transform="translate(48.33203125,9.9921875)"/>
</svg>
