<?xml version="1.0" encoding="UTF-8"?>
<!DOCTYPE svg PUBLIC "-//W3C//DTD SVG 1.1//EN" "http://www.w3.org/Graphics/SVG/1.1/DTD/svg11.dtd">
<svg xmlns="http://www.w3.org/2000/svg" version="1.1" width="170px" height="170px" style="shape-rendering:geometricPrecision; text-rendering:geometricPrecision; image-rendering:optimizeQuality; fill-rule:evenodd; clip-rule:evenodd" xmlns:xlink="http://www.w3.org/1999/xlink">
<g><path style="opacity:1" fill="#fbda47" d="M 47.5,58.5 C 53.1667,58.5 58.8333,58.5 64.5,58.5C 64.5,56.8333 64.5,55.1667 64.5,53.5C 66.7058,41.5502 70.7058,30.2169 76.5,19.5C 81.826,16.4368 86.6594,17.1035 91,21.5C 97.2118,33.1386 102.045,45.3053 105.5,58C 119.225,58.245 132.892,59.245 146.5,61C 150.292,63.0527 151.458,66.2194 150,70.5C 149.333,71.8333 148.667,73.1667 148,74.5C 139.92,82.5843 131.253,89.9176 122,96.5C 123.493,112.452 124.659,128.452 125.5,144.5C 121.486,144.666 117.486,144.499 113.5,144C 106.833,139.333 100.167,134.667 93.5,130C 88.3201,127.149 82.9868,126.815 77.5,129C 69.5,134 61.5,139 53.5,144C 49.577,144.793 45.7436,144.626 42,143.5C 41.3333,138.167 41.3333,132.833 42,127.5C 43.6641,119.847 45.1641,112.181 46.5,104.5C 45.7695,101.891 45.2695,99.2241 45,96.5C 37.2243,87.7181 28.5576,80.0515 19,73.5C 16.6966,68.9617 17.1966,64.795 20.5,61C 29.4525,59.5891 38.4525,58.7557 47.5,58.5 Z"/></g>
<g><path style="opacity:1" fill="#fce995" d="M 64.5,53.5 C 64.5,55.1667 64.5,56.8333 64.5,58.5C 58.8333,58.5 53.1667,58.5 47.5,58.5C 52.6405,57.5119 57.9738,57.1786 63.5,57.5C 63.2322,55.901 63.5655,54.5676 64.5,53.5 Z"/></g>
</svg>
